#!OML:ASF F:\VICON\USERDATA\INSTALL\rory3\rory3.ASF
:FULLY-SPECIFIED
:DEGREES
700
root -17.3155 17.8948 7.69271 154.396 86.2019 149.326
lowerback 4.92578 2.91937 -5.30713
upperback 2.62191 3.73363 -1.94951
thorax -0.256578 1.86681 0.76585
lowerneck -5.6425 3.81207 -2.55295
upperneck 22.9981 6.4695 -0.241565
head 7.95532 3.10188 0.928018
rclavicle 2.60408e-014 3.33958e-014
rhumerus -34.4245 -8.73378 -78.563
rradius 29.0846
rwrist -1.70675
rhand -10.3588 17.9639
rfingers 7.12502
rthumb 15.6381 -11.4241
lclavicle 2.60408e-014 3.33958e-014
lhumerus -36.9846 6.43065 70.6381
lradius 33.8088
lwrist 16.2936
lhand -6.97432 28.5993
lfingers 7.12502
lthumb 18.8955 57.7015
rfemur -25.7427 -0.583801 15.7112
rtibia 44.4426
rfoot -16.2443 -11.7492
rtoes -13.9097
lfemur -13.4972 -2.17432 -25.6351
ltibia 24.7558
lfoot -18.7036 9.96872
ltoes -2.59006
701
root -17.3144 17.9 7.71545 163.457 85.891 158.249
lowerback 4.82999 2.90095 -4.892
upperback 2.57756 3.72671 -1.84172
thorax -0.231673 1.86426 0.651337
lowerneck -5.68724 3.74191 -2.60914
upperneck 22.989 6.37881 -0.224137
head 7.959 3.05641 0.936888
rclavicle -9.0447e-015 4.77083e-015
rhumerus -34.3489 -8.54233 -78.7168
rradius 29.2093
rwrist -1.74609
rhand -10.5291 17.616
rfingers 7.12502
rthumb 15.4741 -11.7847
lclavicle -9.0447e-015 4.77083e-015
lhumerus -37.0214 6.55832 70.801
lradius 33.8592
lwrist 16.2989
lhand -7.03421 28.8293
lfingers 7.12502
lthumb 18.8379 57.9371
rfemur -25.647 0.374773 15.944
rtibia 43.9709
rfoot -16.0499 -11.4256
rtoes -14.5449
lfemur -13.8504 -2.29579 -25.0613
ltibia 25.0011
lfoot -18.5412 9.57222
ltoes -2.60071
702
root -17.3146 17.9025 7.73885 167.2 85.3387 161.922
lowerback 4.84342 2.87038 -4.80342
upperback 2.52083 3.68507 -1.83624
thorax -0.290945 1.84542 0.6078
lowerneck -5.56586 3.67125 -2.59369
upperneck 22.9097 6.26922 -0.201636
head 7.91115 3.01196 0.92793
rclavicle 6.75868e-015 -1.86858e-014
rhumerus -34.3387 -8.6483 -78.7416
rradius 29.2785
rwrist -1.63201
rhand -10.4267 17.5817
rfingers 7.12502
rthumb 15.5727 -11.8113
lclavicle 6.75868e-015 -1.86858e-014
lhumerus -37.0871 6.50711 70.9793
lradius 33.856
lwrist 16.4992
lhand -7.30372 28.9823
lfingers 7.12502
lthumb 18.5787 58.1151
rfemur -25.5074 1.18759 15.825
rtibia 43.5631
rfoot -15.7923 -11.2214
rtoes -16.2846
lfemur -14.0647 -2.54132 -24.8519
ltibia 25.1454
lfoot -18.3868 9.09363
ltoes -1.97075
703
root -17.3162 17.9037 7.76081 168.643 84.7188 163.311
lowerback 4.89987 2.85809 -4.83813
upperback 2.42897 3.65882 -1.8883
thorax -0.414549 1.83556 0.56906
lowerneck -5.38047 3.57133 -2.45156
upperneck 22.921 6.11872 -0.206809
head 7.88731 2.95791 0.886288
rclavicle 4.94974e-014 -1.35174e-014
rhumerus -34.5079 -8.81182 -78.7572
rradius 29.4204
rwrist -1.46477
rhand -10.4587 17.5408
rfingers 7.12502
rthumb 15.5419 -11.8547
lclavicle 4.94974e-014 -1.35174e-014
lhumerus -37.2198 6.43727 71.0938
lradius 33.8428
lwrist 16.6351
lhand -7.35021 28.885
lfingers 7.12502
lthumb 18.534 58.0221
rfemur -25.4038 1.87997 15.5536
rtibia 43.2444
rfoot -15.7201 -10.9469
rtoes -17.7754
lfemur -14.1348 -2.90983 -24.8054
ltibia 25.0305
lfoot -18.146 9.03881
ltoes -2.23931
704
root -17.3162 17.9035 7.78025 167.849 84.0578 162.349
lowerback 4.83558 2.83145 -5.07464
upperback 2.35291 3.61485 -1.97875
thorax -0.46298 1.81477 0.610656
lowerneck -5.35825 3.46755 -2.4195
upperneck 22.9599 5.97244 -0.179983
head 7.89773 2.89598 0.878588
rclavicle -2.48481e-014 1.59028e-014
rhumerus -34.5357 -8.68417 -78.8617
rradius 29.5038
rwrist -1.52185
rhand -10.6047 17.324
rfingers 7.12502
rthumb 15.4013 -12.0824
lclavicle -2.48481e-014 1.59028e-014
lhumerus -37.2922 6.40913 71.2699
lradius 33.8253
lwrist 16.7933
lhand -7.23127 28.8236
lfingers 7.12502
lthumb 18.6484 57.9497
rfemur -25.4702 2.46972 15.0299
rtibia 43.0225
rfoot -15.8186 -10.589
rtoes -18.3658
lfemur -14.1356 -3.3373 -24.9888
ltibia 24.5887
lfoot -17.8489 9.03323
ltoes -2.50527
